<?xml version="1.0" ?><svg id="Layer_1" style="enable-background:new 0 0 70 70;" version="1.1" viewBox="0 0 70 70" xml:space="preserve" xmlns="http://www.w3.org/2000/svg" xmlns:xlink="http://www.w3.org/1999/xlink"><style type="text/css">
	.st0{fill:#D7D2D1;}
	.st1{fill:#5EA3D7;}
</style><g><path class="st0" d="M16.6697655,43.3770485H8.9046021c-0.5955381,0-1.0783925-0.4828568-1.0783925-1.0783958   c0-0.5955353,0.4828544-1.078392,1.0783925-1.078392h8.8435555h7.4934578h7.0079727   c0.5955391,0,1.078392,0.4828568,1.078392,1.078392c0,0.5955391-0.4828529,1.0783958-1.078392,1.0783958h-5.9295788v5.1402664   h26.2698231c-0.7989883-2.3918266-1.89048-7.2412376-0.0299492-12.4441643H23.3202019H9.5069847   c-3.5879717,0-6.5072136,2.7912865-6.5072136,6.221817c0,1.6623459,0.6687298,3.2188568,1.8824477,4.3820229   c1.2274089,1.1879158,2.8686924,1.8403244,4.6247659,1.8403244h7.1627808V43.3770485z M39.577179,41.2202606h8.519722   c0.5955391,0,1.078392,0.4828568,1.078392,1.078392c0,0.5955391-0.4828529,1.0783958-1.078392,1.0783958h-8.519722   c-0.5955353,0-1.078392-0.4828568-1.078392-1.0783958C38.4987869,41.7031174,38.9816437,41.2202606,39.577179,41.2202606z"/><path class="st1" d="M66.9702606,21.4680214H50.9902191v3.0300293c0,0.3900146-0.2099609,0.7600098-0.5599976,0.9500122   c-0.3499756,0.1799927-0.7799683,0.1699829-1.1099854-0.0500488l-3.3399658-2.2099609l-2.9100342,2.1699829   c-0.1900024,0.1400146-0.4199829,0.210022-0.6499634,0.210022c-0.1600342,0-0.3300171-0.0300293-0.4800415-0.1100464   c-0.3699951-0.1799927-0.5999756-0.5599976-0.5999756-0.9599609v-3.0300293H23.3202362   c-3.5899658,0-6.5100098,2.7900391-6.5100098,6.2300415c0,1.6499634,0.6700439,3.1999512,1.8900146,4.3799438   c1.2299805,1.1800537,2.8699951,1.8400269,4.6199951,1.8400269h43.6799927   C66.2002411,31.528019,65.1102753,26.6780434,66.9702606,21.4680214z M46.0702362,28.7680092H22.7202606   c-0.5900269,0-1.0800171-0.4799805-1.0800171-1.0699463c0-0.6000366,0.4899902-1.0800171,1.0800171-1.0800171h23.3499756   c0.5900269,0,1.0700073,0.4799805,1.0700073,1.0800171C47.1402435,28.2880287,46.6602631,28.7680092,46.0702362,28.7680092z    M61.9102631,28.7680092h-8.5200195c-0.5899658,0-1.0800171-0.4799805-1.0800171-1.0699463   c0-0.6000366,0.4900513-1.0800171,1.0800171-1.0800171h8.5200195c0.5999756,0,1.0799561,0.4799805,1.0799561,1.0800171   C62.9902191,28.2880287,62.5102386,28.7680092,61.9102631,28.7680092z"/><path class="st1" d="M41.3402557,19.3080482v-5.1400146H33.580246c-0.5999756,0-1.0800171-0.4899902-1.0800171-1.0800171   c0-0.5999756,0.4800415-1.0799561,1.0800171-1.0799561h23.3400269c0.5999756,0,1.0799561,0.4799805,1.0799561,1.0799561   c0,0.5900269-0.4799805,1.0800171-1.0799561,1.0800171h-5.9300537v5.1400146h5.3400269c3.5800171,0,6.5-2.7900391,6.5-6.2200317   c0-1.6499634-0.6699829-3.2099609-1.8900146-4.3800049c-1.2199707-1.1900029-2.8599854-1.8399663-4.6099854-1.8399663H13.5902557   c0.7999878,2.3900151,1.8900146,7.2399907,0.0299683,12.4400024H41.3402557z M17.7302704,12.0080605h8.5199585   c0.6000366,0,1.0800171,0.4799805,1.0800171,1.0799561c0,0.5900269-0.4799805,1.0800171-1.0800171,1.0800171h-8.5199585   c-0.6000366,0-1.0800171-0.4899902-1.0800171-1.0800171C16.6502533,12.4880409,17.1302338,12.0080605,17.7302704,12.0080605z"/><path class="st0" d="M61.615181,50.6809464H44.5663261c-0.0120468,0-0.0219841-0.0064507-0.0338974-0.0068474h-7.394928   c-0.0227737,0.0014496-0.042057,0.0131645-0.0651627,0.0131645H26.3200092v2.844471   c0,0.3970261-0.2179966,0.7619286-0.5676308,0.949913c-0.3485832,0.1874542-0.7735157,0.168499-1.1052475-0.0500259   l-3.3431225-2.2083855l-2.9108162,2.1725807c-0.1900883,0.1416435-0.4170341,0.2143097-0.6450348,0.2143097   c-0.164814,0-0.3306789-0.0379105-0.4833813-0.1142616c-0.3649044-0.1832428-0.5950108-0.5560493-0.5950108-0.9641304V50.824234   c-2.9595242,0.5717125-5.2155657,3.1033401-5.2155657,6.0853729c0,1.6428642,0.673995,3.200428,1.8982449,4.3857117   c1.2237225,1.1842308,2.8607931,1.8366356,4.6089697,1.8366356h43.6880569   C60.8504868,60.7441406,59.7537956,55.8897285,61.615181,50.6809464z M40.7134933,57.9811554h-23.344986   c-0.5955372,0-1.078392-0.4828529-1.078392-1.078392s0.4828548-1.078392,1.078392-1.078392h23.344986   c0.5955391,0,1.078392,0.4828529,1.078392,1.078392S41.3090324,57.9811554,40.7134933,57.9811554z M56.5608101,57.9811554   h-8.5202484c-0.5955391,0-1.0783958-0.4828529-1.0783958-1.078392s0.4828568-1.078392,1.0783958-1.078392h8.5202484   c0.5955353,0,1.078392,0.4828529,1.078392,1.078392S57.1563454,57.9811554,56.5608101,57.9811554z"/><path class="st0" d="M24.1632233,43.3770485h-5.3366737v6.1925926c0.0002632,0.0092163,0.0052662,0.0168495,0.0052662,0.0260658   c0,0.0022392-0.0012512,0.0040817-0.0012512,0.0063171c0.0001984,0.0079002-0.004015,0.0145493-0.004015,0.0223808v1.7568626   l1.7945118-1.3395653c0.1906147-0.1426964,0.4175625-0.2143097,0.6450348-0.2143097   c0.2069378,0,0.4138756,0.0595016,0.5944862,0.1785049l2.3026409,1.5212288v-1.9156227   c0-0.0009232-0.0005264-0.0017128-0.0005264-0.0026321c0-0.0009232,0.0005264-0.0017128,0.0005264-0.0026321v-0.0079002   c0-0.0009193-0.0005264-0.001709-0.0005264-0.0026321s0.0005264-0.0017128,0.0005264-0.0026321V43.3770485z"/><path class="st1" d="M48.8402557,14.1680336v8.3200073l-2.3099976-1.5200195   c-0.1799927-0.1199951-0.3800049-0.1799927-0.5900269-0.1799927c-0.2299805,0-0.4599609,0.0700073-0.6499634,0.2200317   l-1.7900391,1.3399658v-8.1799927H48.8402557z"/></g></svg>